<svg width="41" height="41" viewBox="0 0 41 41" fill="none" xmlns="http://www.w3.org/2000/svg">
<circle cx="20.5" cy="20.5" r="20.5" transform="matrix(-1 0 0 1 41 0)" fill="#00224F"/>
<path d="M16.7647 12.7687C16.7647 16.7607 19.8497 19.9968 19.8497 19.9968C19.8497 19.9968 23.1305 16.7607 23.1305 12.7687C23.1305 8.77668 19.8497 5.54053 19.8497 5.54053C19.8497 5.54053 16.7647 8.77668 16.7647 12.7687Z" fill="white"/>
<path d="M16.7647 27.0124C16.7647 31.0044 19.8497 34.2405 19.8497 34.2405C19.8497 34.2405 23.1305 31.0044 23.1305 27.0124C23.1305 23.0204 19.8497 19.7842 19.8497 19.7842C19.8497 19.7842 16.7647 23.0204 16.7647 27.0124Z" fill="white"/>
<path d="M27.0147 22.92C31.0667 22.92 34.3516 19.8807 34.3516 19.8807C34.3516 19.8807 31.0667 16.6485 27.0147 16.6485C22.9627 16.6485 19.6779 19.8807 19.6779 19.8807C19.6779 19.8807 22.9627 22.92 27.0147 22.92Z" fill="white"/>
<path d="M12.9884 22.92C17.0404 22.92 20.3252 19.8807 20.3252 19.8807C20.3252 19.8807 17.0404 16.6485 12.9884 16.6485C8.93638 16.6485 5.65156 19.8807 5.65156 19.8807C5.65156 19.8807 8.93638 22.92 12.9884 22.92Z" fill="white"/>
</svg>
